<svg width="238" height="132" viewBox="0 0 238 132" fill="none" xmlns="http://www.w3.org/2000/svg">
<path d="M158 66C158 102.451 122.63 132 79 132C35.3695 132 0 102.451 0 66C0 29.5492 35.3695 0 79 0C122.63 0 158 29.5492 158 66Z" fill="#076ECD"/>
<path d="M158 66C158 102.451 122.63 132 79 132C35.3695 132 0 102.451 0 66C0 29.5492 35.3695 0 79 0C122.63 0 158 29.5492 158 66Z" stroke="black"/>
<path d="M231 68.5C231 103.57 196.974 132 155 132C113.026 132 79 103.57 79 68.5C79 33.4299 113.026 5 155 5C196.974 5 231 33.4299 231 68.5Z" fill="#B6BBB6"/>
<path d="M231 68.5C231 103.57 196.974 132 155 132C113.026 132 79 103.57 79 68.5C79 33.4299 113.026 5 155 5C196.974 5 231 33.4299 231 68.5Z" stroke="black"/>
<mask id="path-3-outside-1_104_8" maskUnits="userSpaceOnUse" x="37" y="36" width="159" height="67" fill="black">
<rect fill="white" x="37" y="36" width="159" height="67"/>
<path d="M90.5977 90.6328C89.3125 92.2461 87.7266 93.6543 85.8398 94.8574C83.9531 96.0605 81.9297 97.0586 79.7695 97.8516C77.6094 98.6445 75.3945 99.2324 73.125 99.6152C70.8555 100.025 68.6953 100.23 66.6445 100.23C62.6797 100.23 59.0293 99.5195 55.6934 98.0977C52.3574 96.6758 49.4727 94.7207 47.0391 92.2324C44.6328 89.7168 42.7461 86.7637 41.3789 83.373C40.0117 79.9824 39.3281 76.332 39.3281 72.4219C39.3281 69.4414 39.6699 66.5293 40.3535 63.6855C41.0371 60.8145 42.0078 58.1211 43.2656 55.6055C44.5508 53.0625 46.1094 50.7383 47.9414 48.6328C49.7734 46.5 51.8516 44.668 54.1758 43.1367C56.5 41.6055 59.043 40.416 61.8047 39.5684C64.5664 38.7207 67.5195 38.2969 70.6641 38.2969C71.8398 38.2969 73.0977 38.3516 74.4375 38.4609C75.7773 38.543 77.1035 38.707 78.416 38.9531C79.7559 39.1719 81.0547 39.4863 82.3125 39.8965C83.5703 40.3066 84.7188 40.8125 85.7578 41.4141L84.6094 57.082C83.0781 56.5078 81.4922 56.125 79.8516 55.9336C78.2383 55.7148 76.6523 55.6055 75.0938 55.6055C72.9062 55.6055 70.8555 55.9473 68.9414 56.6309C67.0547 57.2871 65.4004 58.2441 63.9785 59.502C62.584 60.7598 61.4766 62.291 60.6562 64.0957C59.8359 65.9004 59.4258 67.9375 59.4258 70.207C59.4258 71.6289 59.6172 73.0098 60 74.3496C60.3828 75.6621 60.957 76.8379 61.7227 77.877C62.5156 78.8887 63.4863 79.709 64.6348 80.3379C65.8105 80.9668 67.1641 81.2812 68.6953 81.2812C69.7344 81.2812 70.8008 81.1445 71.8945 80.8711C73.0156 80.5977 73.9727 80.1328 74.7656 79.4766L74.9297 76.2773L65.0859 76.1133L65.5781 63.8086C69.6523 63.6719 73.7266 63.5625 77.8008 63.4805C81.875 63.3711 85.9766 63.2344 90.1055 63.0703L90.5977 90.6328ZM144.451 70.043C144.451 72.5312 144.164 74.9375 143.59 77.2617C143.016 79.5586 142.182 81.7188 141.088 83.7422C140.021 85.7656 138.709 87.625 137.15 89.3203C135.619 90.9883 133.883 92.4238 131.941 93.627C130.027 94.8301 127.936 95.7734 125.666 96.457C123.396 97.1133 120.99 97.4414 118.447 97.4414C115.986 97.4414 113.635 97.127 111.393 96.498C109.178 95.8691 107.1 94.9941 105.158 93.873C103.217 92.7246 101.453 91.3574 99.8672 89.7715C98.3086 88.1582 96.9688 86.3809 95.8477 84.4395C94.7539 82.4707 93.8926 80.3652 93.2637 78.123C92.6621 75.8809 92.3613 73.543 92.3613 71.1094C92.3613 68.7305 92.6484 66.4062 93.2227 64.1367C93.7969 61.8398 94.6172 59.6797 95.6836 57.6562C96.7773 55.6328 98.0898 53.7734 99.6211 52.0781C101.152 50.3828 102.861 48.9199 104.748 47.6895C106.662 46.459 108.727 45.502 110.941 44.8184C113.156 44.1348 115.494 43.793 117.955 43.793C121.92 43.793 125.529 44.4082 128.783 45.6387C132.064 46.8691 134.854 48.6328 137.15 50.9297C139.475 53.1992 141.266 55.9609 142.523 59.2148C143.809 62.4414 144.451 66.0508 144.451 70.043ZM126.24 71.1094C126.24 69.9336 126.062 68.7988 125.707 67.7051C125.379 66.584 124.887 65.5996 124.23 64.752C123.574 63.877 122.754 63.1797 121.77 62.6602C120.812 62.1133 119.705 61.8398 118.447 61.8398C117.162 61.8398 116.014 62.0723 115.002 62.5371C113.99 63.002 113.115 63.6445 112.377 64.4648C111.666 65.2578 111.119 66.2012 110.736 67.2949C110.354 68.3613 110.162 69.4961 110.162 70.6992C110.162 71.8477 110.326 72.9961 110.654 74.1445C110.982 75.293 111.475 76.332 112.131 77.2617C112.787 78.1914 113.594 78.9434 114.551 79.5176C115.535 80.0918 116.67 80.3789 117.955 80.3789C119.24 80.3789 120.389 80.1328 121.4 79.6406C122.439 79.1211 123.314 78.4375 124.025 77.5898C124.736 76.7148 125.283 75.7168 125.666 74.5957C126.049 73.4746 126.24 72.3125 126.24 71.1094ZM193.793 66.4336C193.793 70.2617 193.301 73.7207 192.316 76.8105C191.332 79.873 189.951 82.6074 188.174 85.0137C186.424 87.3926 184.332 89.4434 181.898 91.166C179.465 92.8887 176.799 94.3105 173.9 95.4316C171.002 96.5254 167.912 97.3457 164.631 97.8926C161.377 98.4121 158.027 98.6719 154.582 98.6719C153.297 98.6719 152.039 98.6445 150.809 98.5898C149.578 98.5078 148.32 98.3984 147.035 98.2617L148.184 43.2188C151.191 42.2617 154.281 41.5918 157.453 41.209C160.652 40.7988 163.824 40.5938 166.969 40.5938C170.879 40.5938 174.475 41.1816 177.756 42.3574C181.037 43.5332 183.867 45.2285 186.246 47.4434C188.625 49.6582 190.471 52.3652 191.783 55.5645C193.123 58.7637 193.793 62.3867 193.793 66.4336ZM176.977 69.0586C177.004 67.582 176.84 66.1602 176.484 64.793C176.156 63.4258 175.596 62.2227 174.803 61.1836C174.037 60.1172 173.053 59.2695 171.85 58.6406C170.646 57.9844 169.211 57.6289 167.543 57.5742L165.902 83.0039C167.543 82.7578 169.033 82.2246 170.373 81.4043C171.713 80.5566 172.861 79.5312 173.818 78.3281C174.803 77.0977 175.555 75.7441 176.074 74.2676C176.621 72.7637 176.922 71.2188 176.977 69.6328V69.0586Z"/>
</mask>
<path d="M90.5977 90.6328C89.3125 92.2461 87.7266 93.6543 85.8398 94.8574C83.9531 96.0605 81.9297 97.0586 79.7695 97.8516C77.6094 98.6445 75.3945 99.2324 73.125 99.6152C70.8555 100.025 68.6953 100.23 66.6445 100.23C62.6797 100.23 59.0293 99.5195 55.6934 98.0977C52.3574 96.6758 49.4727 94.7207 47.0391 92.2324C44.6328 89.7168 42.7461 86.7637 41.3789 83.373C40.0117 79.9824 39.3281 76.332 39.3281 72.4219C39.3281 69.4414 39.6699 66.5293 40.3535 63.6855C41.0371 60.8145 42.0078 58.1211 43.2656 55.6055C44.5508 53.0625 46.1094 50.7383 47.9414 48.6328C49.7734 46.5 51.8516 44.668 54.1758 43.1367C56.5 41.6055 59.043 40.416 61.8047 39.5684C64.5664 38.7207 67.5195 38.2969 70.6641 38.2969C71.8398 38.2969 73.0977 38.3516 74.4375 38.4609C75.7773 38.543 77.1035 38.707 78.416 38.9531C79.7559 39.1719 81.0547 39.4863 82.3125 39.8965C83.5703 40.3066 84.7188 40.8125 85.7578 41.4141L84.6094 57.082C83.0781 56.5078 81.4922 56.125 79.8516 55.9336C78.2383 55.7148 76.6523 55.6055 75.0938 55.6055C72.9062 55.6055 70.8555 55.9473 68.9414 56.6309C67.0547 57.2871 65.4004 58.2441 63.9785 59.502C62.584 60.7598 61.4766 62.291 60.6562 64.0957C59.8359 65.9004 59.4258 67.9375 59.4258 70.207C59.4258 71.6289 59.6172 73.0098 60 74.3496C60.3828 75.6621 60.957 76.8379 61.7227 77.877C62.5156 78.8887 63.4863 79.709 64.6348 80.3379C65.8105 80.9668 67.1641 81.2812 68.6953 81.2812C69.7344 81.2812 70.8008 81.1445 71.8945 80.8711C73.0156 80.5977 73.9727 80.1328 74.7656 79.4766L74.9297 76.2773L65.0859 76.1133L65.5781 63.8086C69.6523 63.6719 73.7266 63.5625 77.8008 63.4805C81.875 63.3711 85.9766 63.2344 90.1055 63.0703L90.5977 90.6328ZM144.451 70.043C144.451 72.5312 144.164 74.9375 143.59 77.2617C143.016 79.5586 142.182 81.7188 141.088 83.7422C140.021 85.7656 138.709 87.625 137.15 89.3203C135.619 90.9883 133.883 92.4238 131.941 93.627C130.027 94.8301 127.936 95.7734 125.666 96.457C123.396 97.1133 120.99 97.4414 118.447 97.4414C115.986 97.4414 113.635 97.127 111.393 96.498C109.178 95.8691 107.1 94.9941 105.158 93.873C103.217 92.7246 101.453 91.3574 99.8672 89.7715C98.3086 88.1582 96.9688 86.3809 95.8477 84.4395C94.7539 82.4707 93.8926 80.3652 93.2637 78.123C92.6621 75.8809 92.3613 73.543 92.3613 71.1094C92.3613 68.7305 92.6484 66.4062 93.2227 64.1367C93.7969 61.8398 94.6172 59.6797 95.6836 57.6562C96.7773 55.6328 98.0898 53.7734 99.6211 52.0781C101.152 50.3828 102.861 48.9199 104.748 47.6895C106.662 46.459 108.727 45.502 110.941 44.8184C113.156 44.1348 115.494 43.793 117.955 43.793C121.92 43.793 125.529 44.4082 128.783 45.6387C132.064 46.8691 134.854 48.6328 137.15 50.9297C139.475 53.1992 141.266 55.9609 142.523 59.2148C143.809 62.4414 144.451 66.0508 144.451 70.043ZM126.24 71.1094C126.24 69.9336 126.062 68.7988 125.707 67.7051C125.379 66.584 124.887 65.5996 124.23 64.752C123.574 63.877 122.754 63.1797 121.77 62.6602C120.812 62.1133 119.705 61.8398 118.447 61.8398C117.162 61.8398 116.014 62.0723 115.002 62.5371C113.99 63.002 113.115 63.6445 112.377 64.4648C111.666 65.2578 111.119 66.2012 110.736 67.2949C110.354 68.3613 110.162 69.4961 110.162 70.6992C110.162 71.8477 110.326 72.9961 110.654 74.1445C110.982 75.293 111.475 76.332 112.131 77.2617C112.787 78.1914 113.594 78.9434 114.551 79.5176C115.535 80.0918 116.67 80.3789 117.955 80.3789C119.24 80.3789 120.389 80.1328 121.4 79.6406C122.439 79.1211 123.314 78.4375 124.025 77.5898C124.736 76.7148 125.283 75.7168 125.666 74.5957C126.049 73.4746 126.24 72.3125 126.24 71.1094ZM193.793 66.4336C193.793 70.2617 193.301 73.7207 192.316 76.8105C191.332 79.873 189.951 82.6074 188.174 85.0137C186.424 87.3926 184.332 89.4434 181.898 91.166C179.465 92.8887 176.799 94.3105 173.9 95.4316C171.002 96.5254 167.912 97.3457 164.631 97.8926C161.377 98.4121 158.027 98.6719 154.582 98.6719C153.297 98.6719 152.039 98.6445 150.809 98.5898C149.578 98.5078 148.32 98.3984 147.035 98.2617L148.184 43.2188C151.191 42.2617 154.281 41.5918 157.453 41.209C160.652 40.7988 163.824 40.5938 166.969 40.5938C170.879 40.5938 174.475 41.1816 177.756 42.3574C181.037 43.5332 183.867 45.2285 186.246 47.4434C188.625 49.6582 190.471 52.3652 191.783 55.5645C193.123 58.7637 193.793 62.3867 193.793 66.4336ZM176.977 69.0586C177.004 67.582 176.84 66.1602 176.484 64.793C176.156 63.4258 175.596 62.2227 174.803 61.1836C174.037 60.1172 173.053 59.2695 171.85 58.6406C170.646 57.9844 169.211 57.6289 167.543 57.5742L165.902 83.0039C167.543 82.7578 169.033 82.2246 170.373 81.4043C171.713 80.5566 172.861 79.5312 173.818 78.3281C174.803 77.0977 175.555 75.7441 176.074 74.2676C176.621 72.7637 176.922 71.2188 176.977 69.6328V69.0586Z" fill="#201E1D"/>
<path d="M90.5977 90.6328L92.162 91.879L92.6102 91.3163L92.5973 90.5971L90.5977 90.6328ZM79.7695 97.8516L79.0803 95.9741L79.7695 97.8516ZM73.125 99.6152L72.7923 97.6431L72.7808 97.645L72.7693 97.6471L73.125 99.6152ZM47.0391 92.2324L45.5938 93.6149L45.6015 93.6229L45.6092 93.6308L47.0391 92.2324ZM41.3789 83.373L39.524 84.121L41.3789 83.373ZM40.3535 63.6855L42.2981 64.153L42.2991 64.1488L40.3535 63.6855ZM43.2656 55.6055L41.4806 54.7034L41.4768 54.711L43.2656 55.6055ZM47.9414 48.6328L49.4502 49.9457L49.4585 49.936L47.9414 48.6328ZM74.4375 38.4609L74.2748 40.4543L74.295 40.456L74.3153 40.4572L74.4375 38.4609ZM78.416 38.9531L78.0474 40.9189L78.0705 40.9232L78.0938 40.927L78.416 38.9531ZM85.7578 41.4141L87.7525 41.5603L87.844 40.3109L86.7599 39.6832L85.7578 41.4141ZM84.6094 57.082L83.9071 58.9547L86.4087 59.8928L86.604 57.2282L84.6094 57.082ZM79.8516 55.9336L79.5828 57.9155L79.6013 57.918L79.6198 57.9201L79.8516 55.9336ZM68.9414 56.6309L69.5984 58.5199L69.6063 58.5171L69.6141 58.5143L68.9414 56.6309ZM63.9785 59.502L62.6534 58.004L62.6461 58.0104L62.639 58.0168L63.9785 59.502ZM60 74.3496L58.0769 74.8991L58.08 74.9096L60 74.3496ZM61.7227 77.877L60.1125 79.0634L60.1302 79.0873L60.1485 79.1107L61.7227 77.877ZM64.6348 80.3379L63.6741 82.0921L63.6828 82.0968L63.6915 82.1015L64.6348 80.3379ZM71.8945 80.8711L71.4206 78.928L71.4095 78.9308L71.8945 80.8711ZM74.7656 79.4766L76.0408 81.0174L76.718 80.4569L76.763 79.579L74.7656 79.4766ZM74.9297 76.2773L76.9271 76.3798L77.0331 74.3121L74.963 74.2776L74.9297 76.2773ZM65.0859 76.1133L63.0875 76.0333L63.0057 78.0789L65.0526 78.113L65.0859 76.1133ZM65.5781 63.8086L65.511 61.8097L63.654 61.872L63.5797 63.7287L65.5781 63.8086ZM77.8008 63.4805L77.841 65.4801L77.8545 65.4797L77.8008 63.4805ZM90.1055 63.0703L92.1051 63.0346L92.0687 60.9907L90.0261 61.0719L90.1055 63.0703ZM89.0333 89.3867C87.897 90.8132 86.4808 92.0766 84.7645 93.1711L86.9152 96.5437C88.9723 95.232 90.728 93.679 92.162 91.879L89.0333 89.3867ZM84.7645 93.1711C83.0026 94.2946 81.1091 95.2293 79.0803 95.9741L80.4587 99.7291C82.7503 98.8879 84.9036 97.8265 86.9152 96.5437L84.7645 93.1711ZM79.0803 95.9741C77.0359 96.7246 74.9404 97.2808 72.7923 97.6431L73.4577 101.587C75.8487 101.184 78.1829 100.565 80.4587 99.7291L79.0803 95.9741ZM72.7693 97.6471C70.6029 98.0386 68.5624 98.2305 66.6445 98.2305V102.23C68.8282 102.23 71.108 102.012 73.4807 101.583L72.7693 97.6471ZM66.6445 98.2305C62.9239 98.2305 59.5433 97.5645 56.4776 96.2578L54.9092 99.9375C58.5153 101.475 62.4355 102.23 66.6445 102.23V98.2305ZM56.4776 96.2578C53.3734 94.9347 50.7107 93.1262 48.4689 90.834L45.6092 93.6308C48.2346 96.3152 51.3414 98.4168 54.9092 99.9375L56.4776 96.2578ZM48.4843 90.85C46.2624 88.527 44.5108 85.7921 43.2338 82.6251L39.524 84.121C40.9814 87.7352 43.0032 90.9065 45.5938 93.6149L48.4843 90.85ZM43.2338 82.6251C41.969 79.4883 41.3281 76.0937 41.3281 72.4219H37.3281C37.3281 76.5703 38.0545 80.4765 39.524 84.121L43.2338 82.6251ZM41.3281 72.4219C41.3281 69.5958 41.652 66.8408 42.2981 64.153L38.4089 63.2181C37.6878 66.2178 37.3281 69.287 37.3281 72.4219H41.3281ZM42.2991 64.1488C42.9489 61.4196 43.8686 58.8717 45.0545 56.4999L41.4768 54.711C40.147 57.3705 39.1253 60.2093 38.4079 63.2223L42.2991 64.1488ZM45.0506 56.5076C46.2626 54.1093 47.7292 51.9236 49.4502 49.9457L46.4326 47.32C44.4896 49.553 42.8389 52.0157 41.4806 54.7034L45.0506 56.5076ZM49.4585 49.936C51.1706 47.9428 53.1088 46.2347 55.2761 44.8068L53.0755 41.4666C50.5943 43.1012 48.3763 45.0572 46.4243 47.3296L49.4585 49.936ZM55.2761 44.8068C57.4356 43.3841 59.8047 42.2743 62.3915 41.4803L61.2178 37.6564C58.2813 38.5577 55.5644 39.8268 53.0755 41.4666L55.2761 44.8068ZM62.3915 41.4803C64.9471 40.696 67.7009 40.2969 70.6641 40.2969V36.2969C67.3381 36.2969 64.1858 36.7455 61.2178 37.6564L62.3915 41.4803ZM70.6641 40.2969C71.7785 40.2969 72.9816 40.3487 74.2748 40.4543L74.6002 36.4676C73.2137 36.3544 71.9012 36.2969 70.6641 36.2969V40.2969ZM74.3153 40.4572C75.5729 40.5342 76.8168 40.6881 78.0474 40.9189L78.7846 36.9874C77.3903 36.7259 75.9818 36.5517 74.5597 36.4647L74.3153 40.4572ZM78.0938 40.927C79.3353 41.1297 80.5344 41.4203 81.6925 41.7979L82.9325 37.995C81.575 37.5523 80.1765 37.2141 78.7383 36.9793L78.0938 40.927ZM81.6925 41.7979C82.8306 42.1691 83.8493 42.6201 84.7557 43.1449L86.7599 39.6832C85.5882 39.0049 84.31 38.4442 82.9325 37.995L81.6925 41.7979ZM83.7632 41.2679L82.6147 56.9358L86.604 57.2282L87.7525 41.5603L83.7632 41.2679ZM85.3116 55.2094C83.6272 54.5777 81.8832 54.1571 80.0833 53.9471L79.6198 57.9201C81.1012 58.0929 82.529 58.4379 83.9071 58.9547L85.3116 55.2094ZM80.1203 53.9517C78.4219 53.7214 76.7461 53.6055 75.0938 53.6055V57.6055C76.5586 57.6055 78.0547 57.7083 79.5828 57.9155L80.1203 53.9517ZM75.0938 53.6055C72.6945 53.6055 70.4146 53.981 68.2687 54.7474L69.6141 58.5143C71.2963 57.9135 73.118 57.6055 75.0938 57.6055V53.6055ZM68.2844 54.7419C66.1647 55.4792 64.2805 56.5646 62.6534 58.004L65.3037 60.9999C66.5203 59.9237 67.9447 59.0951 69.5984 58.5199L68.2844 54.7419ZM62.639 58.0168C61.0294 59.4686 59.763 61.2277 58.8355 63.2681L62.477 64.9233C63.1901 63.3544 64.1386 62.0509 65.3181 60.9871L62.639 58.0168ZM58.8355 63.2681C57.8811 65.3678 57.4258 67.6933 57.4258 70.207H61.4258C61.4258 68.1817 61.7908 66.433 62.477 64.9233L58.8355 63.2681ZM57.4258 70.207C57.4258 71.8109 57.642 73.3769 58.077 74.8991L61.923 73.8002C61.5923 72.6426 61.4258 71.4469 61.4258 70.207H57.4258ZM58.08 74.9096C58.5246 76.434 59.1996 77.8243 60.1125 79.0634L63.3328 76.6906C62.7145 75.8515 62.241 74.8902 61.92 73.7896L58.08 74.9096ZM60.1485 79.1107C61.1118 80.3397 62.2926 81.3355 63.6741 82.0921L65.5954 78.5837C64.6801 78.0824 63.9194 77.4376 63.2968 76.6432L60.1485 79.1107ZM63.6915 82.1015C65.1979 82.9073 66.8842 83.2812 68.6953 83.2812V79.2812C67.4439 79.2812 66.4232 79.0263 65.5781 78.5743L63.6915 82.1015ZM68.6953 83.2812C69.9111 83.2812 71.1406 83.1211 72.3796 82.8114L71.4095 78.9308C70.461 79.1679 69.5576 79.2812 68.6953 79.2812V83.2812ZM72.3684 82.8141C73.7477 82.4777 74.9877 81.8888 76.0408 81.0174L73.4905 77.9358C72.9576 78.3768 72.2835 78.7176 71.4206 78.9281L72.3684 82.8141ZM76.763 79.579L76.9271 76.3798L72.9323 76.1749L72.7682 79.3741L76.763 79.579ZM74.963 74.2776L65.1193 74.1136L65.0526 78.113L74.8964 78.2771L74.963 74.2776ZM67.0843 76.1932L67.5765 63.8885L63.5797 63.7287L63.0875 76.0333L67.0843 76.1932ZM65.6452 65.8075C69.7105 65.671 73.7758 65.5619 77.841 65.4801L77.7605 61.4809C73.6774 61.5631 69.5942 61.6727 65.511 61.8097L65.6452 65.8075ZM77.8545 65.4797C81.9374 65.3701 86.0475 65.2331 90.1849 65.0687L90.0261 61.0719C85.9056 61.2356 81.8126 61.372 77.7471 61.4812L77.8545 65.4797ZM88.1058 63.106L88.598 90.6685L92.5973 90.5971L92.1051 63.0346L88.1058 63.106ZM143.59 77.2617L145.53 77.7468L145.531 77.7414L143.59 77.2617ZM141.088 83.7422L139.328 82.7912L139.323 82.8004L139.319 82.8097L141.088 83.7422ZM137.15 89.3203L135.678 87.9667L135.677 87.9678L137.15 89.3203ZM131.941 93.627L130.888 91.9269L130.877 91.9337L131.941 93.627ZM125.666 96.457L126.222 98.3783L126.232 98.3752L126.243 98.372L125.666 96.457ZM111.393 96.498L110.846 98.422L110.852 98.4237L111.393 96.498ZM105.158 93.873L104.14 95.5944L104.149 95.5998L104.158 95.605L105.158 93.873ZM99.8672 89.7715L98.4288 91.1611L98.4408 91.1735L98.453 91.1857L99.8672 89.7715ZM95.8477 84.4395L94.0993 85.4107L94.1074 85.4252L94.1157 85.4396L95.8477 84.4395ZM93.2637 78.123L91.332 78.6413L91.3349 78.6523L91.338 78.6632L93.2637 78.123ZM93.2227 64.1367L95.1616 64.6273L95.1629 64.6218L93.2227 64.1367ZM95.6836 57.6562L93.9242 56.7052L93.9192 56.7145L93.9143 56.7238L95.6836 57.6562ZM104.748 47.6895L103.667 46.0071L103.656 46.0142L104.748 47.6895ZM128.783 45.6387L128.076 47.5094L128.081 47.5113L128.783 45.6387ZM137.15 50.9297L135.736 52.3439L135.745 52.3523L135.753 52.3606L137.15 50.9297ZM142.523 59.2148L140.658 59.936L140.662 59.9454L140.665 59.9549L142.523 59.2148ZM125.707 67.7051L123.788 68.2669L123.796 68.2952L123.805 68.3233L125.707 67.7051ZM124.23 64.752L122.63 65.952L122.64 65.9642L122.649 65.9763L124.23 64.752ZM121.77 62.6602L120.777 64.3966L120.806 64.4133L120.836 64.4289L121.77 62.6602ZM112.377 64.4648L110.89 63.1269L110.888 63.1298L112.377 64.4648ZM110.736 67.2949L112.619 67.9707L112.621 67.9631L112.624 67.9556L110.736 67.2949ZM114.551 79.5176L113.522 81.2326L113.532 81.2389L113.543 81.2451L114.551 79.5176ZM121.4 79.6406L122.275 81.4391L122.285 81.4343L122.295 81.4295L121.4 79.6406ZM124.025 77.5898L125.558 78.8751L125.568 78.8631L125.578 78.851L124.025 77.5898ZM142.451 70.043C142.451 72.3759 142.182 74.6208 141.648 76.782L145.531 77.7414C146.146 75.2542 146.451 72.6866 146.451 70.043H142.451ZM141.65 76.7766C141.115 78.916 140.34 80.9191 139.328 82.7912L142.847 84.6932C144.023 82.5184 144.917 80.2012 145.53 77.7468L141.65 76.7766ZM139.319 82.8097C138.333 84.6795 137.121 86.3975 135.678 87.9667L138.623 90.6739C140.297 88.8525 141.71 86.8517 142.857 84.6747L139.319 82.8097ZM135.677 87.9678C134.27 89.5001 132.676 90.8191 130.888 91.9269L132.995 95.327C135.09 94.0286 136.968 92.4764 138.624 90.6729L135.677 87.9678ZM130.877 91.9337C129.122 93.0368 127.195 93.9076 125.089 94.542L126.243 98.372C128.676 97.6392 130.933 96.6233 133.006 95.3202L130.877 91.9337ZM125.11 94.5357C123.035 95.136 120.817 95.4414 118.447 95.4414V99.4414C121.164 99.4414 123.758 99.0906 126.222 98.3783L125.11 94.5357ZM118.447 95.4414C116.159 95.4414 113.989 95.1492 111.933 94.5724L110.852 98.4237C113.28 99.1047 115.814 99.4414 118.447 99.4414V95.4414ZM111.939 94.5741C109.878 93.989 107.953 93.1775 106.158 92.1411L104.158 95.605C106.246 96.8108 108.477 97.7493 110.846 98.422L111.939 94.5741ZM106.176 92.1517C104.379 91.0881 102.748 89.8239 101.281 88.3573L98.453 91.1857C100.158 92.8909 102.055 94.3611 104.14 95.5944L106.176 92.1517ZM101.306 88.3819C99.8603 86.8859 98.6191 85.2393 97.5796 83.4393L94.1157 85.4396C95.3184 87.5224 96.7569 89.4305 98.4288 91.1611L101.306 88.3819ZM97.596 83.4682C96.5805 81.6403 95.7776 79.6801 95.1894 77.5829L91.338 78.6632C92.0076 81.0504 92.9273 83.3011 94.0993 85.4107L97.596 83.4682ZM95.1954 77.6048C94.6413 75.5396 94.3613 73.3764 94.3613 71.1094H90.3613C90.3613 73.7095 90.6829 76.2221 91.332 78.6413L95.1954 77.6048ZM94.3613 71.1094C94.3613 68.8932 94.6286 66.7339 95.1616 64.6273L91.2838 63.6462C90.6683 66.0786 90.3613 68.5677 90.3613 71.1094H94.3613ZM95.1629 64.6218C95.6997 62.4749 96.4638 60.4655 97.4529 58.5887L93.9143 56.7238C92.7706 58.8939 91.8941 61.2048 91.2824 63.6516L95.1629 64.6218ZM97.443 58.6073C98.4614 56.7232 99.6817 54.9948 101.105 53.4187L98.1369 50.7376C96.498 52.5521 95.0933 54.5424 93.9242 56.7052L97.443 58.6073ZM101.105 53.4187C102.523 51.8495 104.1 50.4996 105.841 49.3647L103.656 46.0142C101.622 47.3402 99.7821 48.9161 98.1369 50.7376L101.105 53.4187ZM105.83 49.3718C107.588 48.2414 109.487 47.3605 111.531 46.7294L110.352 42.9073C107.966 43.6435 105.736 44.6766 103.667 46.0071L105.83 49.3718ZM111.531 46.7294C113.544 46.1083 115.682 45.793 117.955 45.793V41.793C115.307 41.793 112.769 42.1612 110.352 42.9073L111.531 46.7294ZM117.955 45.793C121.712 45.793 125.077 46.3755 128.076 47.5094L129.491 43.768C125.981 42.4409 122.128 41.793 117.955 41.793V45.793ZM128.081 47.5113C131.116 48.6496 133.657 50.2645 135.736 52.3439L138.565 49.5155C136.05 47.0012 133.013 45.0887 129.485 43.766L128.081 47.5113ZM135.753 52.3606C137.857 54.4153 139.496 56.9294 140.658 59.936L144.389 58.4937C143.035 54.9925 141.092 51.9831 138.548 49.4987L135.753 52.3606ZM140.665 59.9549C141.844 62.9135 142.451 66.2668 142.451 70.043H146.451C146.451 65.8348 145.773 61.9693 144.381 58.4748L140.665 59.9549ZM128.24 71.1094C128.24 69.7284 128.031 68.3848 127.609 67.0869L123.805 68.3233C124.094 69.2129 124.24 70.1388 124.24 71.1094H128.24ZM127.627 67.1433C127.234 65.8037 126.634 64.5901 125.812 63.5276L122.649 65.9763C123.139 66.6091 123.523 67.3642 123.788 68.2669L127.627 67.1433ZM125.83 63.552C124.994 62.4362 123.944 61.5464 122.703 60.8914L120.836 64.4289C121.564 64.813 122.155 65.3178 122.63 65.952L125.83 63.552ZM122.762 60.9237C121.462 60.1809 120.003 59.8398 118.447 59.8398V63.8398C119.407 63.8398 120.163 64.0456 120.777 64.3966L122.762 60.9237ZM118.447 59.8398C116.918 59.8398 115.478 60.1174 114.167 60.7198L115.837 64.3545C116.549 64.0272 117.406 63.8398 118.447 63.8398V59.8398ZM114.167 60.7198C112.91 61.2973 111.813 62.1022 110.89 63.1269L113.864 65.8028C114.418 65.1868 115.071 64.7066 115.837 64.3545L114.167 60.7198ZM110.888 63.1298C109.986 64.1357 109.311 65.3137 108.849 66.6342L112.624 67.9556C112.927 67.0887 113.346 66.3799 113.866 65.7999L110.888 63.1298ZM108.854 66.6192C108.389 67.9155 108.162 69.2801 108.162 70.6992H112.162C112.162 69.7121 112.318 68.8072 112.619 67.9707L108.854 66.6192ZM108.162 70.6992C108.162 72.0408 108.354 73.374 108.731 74.694L112.577 73.5951C112.298 72.6182 112.162 71.6545 112.162 70.6992H108.162ZM108.731 74.694C109.118 76.0477 109.705 77.2928 110.497 78.4151L113.765 76.1084C113.244 75.3713 112.847 74.5382 112.577 73.5951L108.731 74.694ZM110.497 78.4151C111.31 79.5674 112.321 80.5124 113.522 81.2326L115.58 77.8026C114.866 77.3743 114.264 76.8154 113.765 76.1084L110.497 78.4151ZM113.543 81.2451C114.871 82.0197 116.362 82.3789 117.955 82.3789V78.3789C116.978 78.3789 116.199 78.1639 115.559 77.79L113.543 81.2451ZM117.955 82.3789C119.5 82.3789 120.955 82.0816 122.275 81.4391L120.525 77.8422C119.823 78.184 118.98 78.3789 117.955 78.3789V82.3789ZM122.295 81.4295C123.566 80.7938 124.662 79.9429 125.558 78.8751L122.493 76.3046C121.967 76.9321 121.313 77.4484 120.506 77.8518L122.295 81.4295ZM125.578 78.851C126.445 77.7836 127.104 76.5751 127.559 75.242L123.773 73.9494C123.463 74.8585 123.028 75.6461 122.473 76.3287L125.578 78.851ZM127.559 75.242C128.014 73.9096 128.24 72.5289 128.24 71.1094H124.24C124.24 72.0961 124.084 73.0397 123.773 73.9494L127.559 75.242ZM192.316 76.8105L194.22 77.4226L194.222 77.4177L192.316 76.8105ZM188.174 85.0137L186.565 83.8254L186.563 83.8285L188.174 85.0137ZM173.9 95.4316L174.607 97.3028L174.614 97.2999L174.622 97.297L173.9 95.4316ZM164.631 97.8926L164.946 99.8676L164.96 99.8654L164.631 97.8926ZM150.809 98.5898L150.676 100.585L150.698 100.587L150.72 100.588L150.809 98.5898ZM147.035 98.2617L145.036 98.22L144.997 100.056L146.824 100.25L147.035 98.2617ZM148.184 43.2188L147.577 41.3129L146.214 41.7467L146.184 43.177L148.184 43.2188ZM157.453 41.209L157.693 43.1946L157.7 43.1937L157.707 43.1927L157.453 41.209ZM191.783 55.5645L189.933 56.3236L189.936 56.3303L189.938 56.337L191.783 55.5645ZM176.977 69.0586L174.977 69.0216L174.977 69.0401V69.0586H176.977ZM176.484 64.793L174.54 65.2597L174.544 65.278L174.549 65.2962L176.484 64.793ZM174.803 61.1836L173.178 62.35L173.195 62.3737L173.213 62.3969L174.803 61.1836ZM171.85 58.6406L170.892 60.3964L170.907 60.4049L170.923 60.4131L171.85 58.6406ZM167.543 57.5742L167.609 55.5753L165.672 55.5118L165.547 57.4455L167.543 57.5742ZM165.902 83.0039L163.906 82.8751L163.747 85.3496L166.199 84.9818L165.902 83.0039ZM170.373 81.4043L171.417 83.11L171.43 83.1023L171.442 83.0945L170.373 81.4043ZM173.818 78.3281L172.257 77.0787L172.253 77.0831L173.818 78.3281ZM176.074 74.2676L174.195 73.5841L174.191 73.5939L174.188 73.6038L176.074 74.2676ZM176.977 69.6328L178.975 69.7017L178.977 69.6673V69.6328H176.977ZM191.793 66.4336C191.793 70.0919 191.323 73.3416 190.411 76.2034L194.222 77.4177C195.279 74.0998 195.793 70.4316 195.793 66.4336H191.793ZM190.412 76.1985C189.489 79.0698 188.204 81.6066 186.565 83.8254L189.783 86.2019C191.698 83.6082 193.175 80.6763 194.22 77.4226L190.412 76.1985ZM186.563 83.8285C184.941 86.0332 183.003 87.9335 180.743 89.5336L183.054 92.7984C185.661 90.9532 187.907 88.7519 189.785 86.1988L186.563 83.8285ZM180.743 89.5336C178.449 91.1571 175.93 92.5022 173.179 93.5663L174.622 97.297C177.668 96.1189 180.48 94.6203 183.054 92.7984L180.743 89.5336ZM173.194 93.5604C170.427 94.6048 167.464 95.3928 164.302 95.9198L164.96 99.8654C168.36 99.2986 171.577 98.4459 174.607 97.3028L173.194 93.5604ZM164.316 95.9176C161.171 96.4197 157.927 96.6719 154.582 96.6719V100.672C158.128 100.672 161.583 100.404 164.946 99.8676L164.316 95.9176ZM154.582 96.6719C153.325 96.6719 152.097 96.6451 150.897 96.5918L150.72 100.588C151.981 100.644 153.269 100.672 154.582 100.672V96.6719ZM150.942 96.5943C149.739 96.5141 148.507 96.407 147.247 96.2729L146.824 100.25C148.134 100.39 149.418 100.502 150.676 100.585L150.942 96.5943ZM149.035 98.3034L150.183 43.2605L146.184 43.177L145.036 98.22L149.035 98.3034ZM148.79 45.1246C151.677 44.2061 154.644 43.5625 157.693 43.1946L157.213 39.2234C153.919 39.621 150.706 40.3174 147.577 41.3129L148.79 45.1246ZM157.707 43.1927C160.824 42.7931 163.911 42.5938 166.969 42.5938V38.5938C163.737 38.5938 160.48 38.8045 157.199 39.2252L157.707 43.1927ZM166.969 42.5938C170.677 42.5938 174.041 43.1508 177.081 44.2402L178.431 40.4746C174.908 39.2125 171.081 38.5938 166.969 38.5938V42.5938ZM177.081 44.2402C180.126 45.3312 182.717 46.8903 184.883 48.9071L187.609 45.9796C185.017 43.5667 181.948 41.7353 178.431 40.4746L177.081 44.2402ZM184.883 48.9071C187.037 50.9126 188.723 53.3743 189.933 56.3236L193.634 54.8053C192.218 51.3562 190.213 48.4038 187.609 45.9796L184.883 48.9071ZM189.938 56.337C191.16 59.2543 191.793 62.6083 191.793 66.4336H195.793C195.793 62.1651 195.086 58.2731 193.628 54.7919L189.938 56.337ZM178.976 69.0956C179.007 67.4452 178.823 65.8411 178.42 64.2897L174.549 65.2962C174.856 66.4792 175.001 67.7189 174.977 69.0216L178.976 69.0956ZM178.429 64.3262C178.041 62.709 177.367 61.2471 176.393 59.9702L173.213 62.3969C173.824 63.1982 174.271 64.1426 174.54 65.2597L178.429 64.3262ZM176.427 60.0172C175.473 58.6882 174.246 57.6367 172.776 56.8682L170.923 60.4131C171.859 60.9024 172.601 61.5462 173.178 62.35L176.427 60.0172ZM172.807 56.8848C171.277 56.0499 169.522 55.638 167.609 55.5753L167.477 59.5731C168.9 59.6198 170.016 59.9189 170.892 60.3964L172.807 56.8848ZM165.547 57.4455L163.906 82.8751L167.898 83.1327L169.539 57.703L165.547 57.4455ZM166.199 84.9818C168.089 84.6982 169.836 84.0779 171.417 83.11L169.329 79.6986C168.23 80.3713 166.996 80.8174 165.606 81.026L166.199 84.9818ZM171.442 83.0945C172.965 82.131 174.283 80.9568 175.384 79.5732L172.253 77.0831C171.44 78.1057 170.461 78.9823 169.304 79.7141L171.442 83.0945ZM175.38 79.5775C176.504 78.1727 177.366 76.6215 177.961 74.9314L174.188 73.6038C173.743 74.8668 173.102 76.0226 172.257 77.0787L175.38 79.5775ZM177.954 74.9511C178.572 73.2515 178.913 71.4993 178.975 69.7017L174.978 69.5639C174.93 70.9382 174.67 72.2758 174.195 73.5841L177.954 74.9511ZM178.977 69.6328V69.0586H174.977V69.6328H178.977Z" fill="#F5EBEB" mask="url(#path-3-outside-1_104_8)"/>
</svg>
